/* XPM */
static char *_751470473[] = {
/* columns rows colors chars-per-pixel */
"128 128 44 1 ",
"  c #030303",
". c #080807",
"X c #0B0B09",
"o c #10100E",
"O c #151513",
"+ c #191916",
"@ c #1D1D1B",
"# c #22221E",
"$ c #252523",
"% c #2A2A26",
"& c #2D2D2A",
"* c #32322D",
"= c #39392F",
"- c #353532",
"; c #3B3B35",
": c #3D3D39",
"> c #404037",
", c #43433C",
"< c #49493E",
"1 c #464641",
"2 c #4B4B44",
"3 c #4E4E48",
"4 c #515146",
"5 c #54544B",
"6 c #59594E",
"7 c #575750",
"8 c #5C5C52",
"9 c #626255",
"0 c #686856",
"q c #656559",
"w c #6B6B5D",
"e c #70705F",
"r c #6E6E60",
"t c #737364",
"y c #787867",
"u c #777768",
"i c #7B7B6B",
"p c #7F7F70",
"a c #80806E",
"s c #838372",
"d c #898976",
"f c #8B8B79",
"g c #91917D",
"h c #959582",
/* pixels */
"3644<,>;;;2><,;%&%&#$$@$+@OO@OO$$$$@$@$-&--$$@$----$--::,=2,=*@#*,><><>;><:<<;,;<<1<>>,<<*=**&--%&#%$%%&&-*%&&-&&%$&-;&&*=;;&%o@",
"<606>,>>,<45<,;<-;=&&$$$+@$@-O@$$&@$&$$$&1:$&-&-:-:-::--,<,2<* o*,446<><<52<4>,414<5<<2442;;&-$&;-%*$;-%&%-*$;%&&**=-<=*%1,<>&  ",
">6e6816<3<836523,1,,-&----&$$$@@&&--$:-:&:&$:-:-11-117314566>..X%&66625669056668909568698,:=-:;::;;--&-22;1-:-,;,-;::1>*:45>;.. ",
"*<<dirw846470siw951533--:::::---::::1:13331:177377q33q7q9wit+X. ##<yiisiyiitadaafspitwysrr2881375<233882858959r88qw439588558oX  ",
"=>2uw931334519r841;11:---:$-&-&$&--$:-&---:--:1331171:7785q<. X #=<809r359qww8e0wwrt9ww8r9983:,1:1;1318866663864886543425381.   ",
"*,38458555,459r872:11;&:1-&---$&:$-:--&-----3311311331:11855  X ;<<qw998qyrwieew8wtwq9qt9r8rr,2:3558580uw698w5w9q8929423346<    ",
";>,w876533<159985212:-&-:--&&&--$-$----:&&-&::333:1773-14q02.. X><;y9qq9qq0twwq0ywwry0wqqrrui84:48980tyretwe965q9qqq42666<44 X X",
":<3w854231133wq98533,-1---&:$-&--$$-&--$&--::313:33137733591 X .==<07598009qtw0wiwwuy8ryrtwtriq954qqtyryiiwtwtr689qqwtqwq963    ",
"*><w85514,11<8r83177::::--:----&--:---:-&-&--13133713582132-  XX;>4r959tturqttwiywqtrttq0iyiirt9r58qiytrwrryqit67qpprrr7wq82X   ",
"&><6<4311<2,38t87137:-::-&&---&--$-&-&--&:1-113717733135111<X   =:6q488wwqw988ytt0qtwrrwwwiyuwt5899uiuw9rtwysqeafuturrtrwq6<X   ",
";:<0738451,39wqq17::11-1&&-&--&-$$&&----$---:13113173:31::3;  X ;<8yqq8qq89r8t90wqq9ttww60tii089859rtt9t9riwit6qquu78urqr88<    ",
";>10343913<2t8qq7771::::---&:&-&-$&-&------:-:3133:351216<51    <41trq55r88utttiyytuwrqqqrrwrryrqt89ittq8qrr88821,53,11r893-    ",
";=<q8834431969t5773111::-:--&---$$$--&--:-::-:3133751,586555..  ;<90qw89i090w9qti0uyiyqwrtti0tuiywrtwqr03858653,2211-1-321;%    ",
";<598884,43489r973:1::::----$$-$$---&-::---1&:--,3781r77909<    =;<y9wtr8qwwwyyiiwrwyw6w99tytr9rwrittt99w41852,,1:11,-&:---$    ",
"#<<0588653<3850r7q31::----&:$---&&&&&-:-&-::&:1--331177788q6  XX$#,928rwt8w9qwwtwryuw09w9tuririq0ttry9589138631,1-----,:-:-@    ",
"==;94,5644315qwq777733:-:&---&--&--:-:-:-$--&:1&::1153289682.   ;%&934wrwqwqqq8qt6iwitwq8qtuyrtwiriywq3842314,:;,-,;&,-:-&-@    ",
">>:984433377828r37r71:1-:$@-$&-$--&---:&::--&:&-121-7888q6t5.X  *;;654ww99wt88996w0rir9u9qwwiitutu0tq988<11173127&,----$$:-&..  ",
",;38512252;231327q773-:--&-:&&&&-$-$:-&-:1111---12-12418q0q8X XX=:<588293r9wwqt56eit9qwrtutt0wututqwt884731,31,;1,1-:-:&---&.   ",
"=:,34532711-113;qrr771::&---&&--$-&&&&::1:111:-31272452896w5X   #:<855644qq9qwqr6wr9qww89wywtu8wwt9qu85321,,::;21,:1:---&-$-    ",
"*&;88q98873,%;,333q773&:&&&--&-$&@&--:&::-&-1:33535485189606X X.*;*58019wt89y9q80w9qw8qrqwtrrii88r6rq889351*121-,,-,:::&&$&$    ",
"*#*0rqrrq3171;::337:33:---$-&&---&&-------::1131312588739qq8 .X %*=3<85wtqr8qq9qr8wqr8ww99uwwwq855990q6883<1277;-,-1----&:&@    ",
"%#:qq9r78r;53:11:333-3:1:---:&&-&-&---:--11:1:17341582880908  XX**<yq18q9rrqqrqq8q89wq8wwrri8925239w9r89w8225311:,:-::-&-::&    ",
"*:>9888382,;2:,::733:711::------&:-&$-:---1111375;28519qtq95X   >>>w8q85wt0r9q95715q988q0ti0tu4849q8r9rrqr21221333,11:--:-$&    ",
"##:84<57511311;57377111:-::&:-&&---&::--::--11315125847qtq95X   ;;3q8<98yqrq884844<qwqw0q8rywt88988wrrrttt53<89113:--:-,--&%    ",
"&&;89q85,::4:,12782<11-1:-&--$:----&&&$--&;,:3447235314q0q85  XX;=<64650qw9qq6884585rw8ywq0wtt8599qw9wt0wq5614233-,::,-:-&$$    ",
"%#,856884<:11;11;,1;31,:&&---$---:--@-:--:::,:<1:1,354569584.o  **#<556wy9096448548w9qt8rq9w89<278qq0qq8893<3,3211:1:--%&--&    ",
"#%=6466983382&1,;2<38;;--$-$$$--%&&%&---&&&:*:*:23,14,435983 X  %$&<256w06668855558609w9690wq<:<:556qq659892,:1:-;,-::&-&&&@    ",
"==,4;4<5<128;&&&--1,11$&&$$$--$$&$@$$@$--$%-&&$-;$,:<=,,14;1X X #%=4:,><5><4<3<<,<41<5658545<-;$;*,-<<2413,1&;%-%&$&&@&@$&$@    ",
"*&%X     X X         .    . @OOX                         X .    %+&X     XoXX    .X  X  XX       X   XX  X                      ",
"oo      .X                  OOXX                     .X     X  .#X    .     .    .X XXX    X X      .   X                       ",
"X   X    o                    X.              X  .X         X   X X  X .X X X     X X X              .     X       .            ",
"%X   . X                      ..                      .   X    $=o          X   X       X .     X X        X                   o",
"=>4<64<;<<,><4<=2,;,=*><;<*;+#X+<<4==;><>,=,;><::-&---&@@$O$O&@$$@&$%$&&&&&@&@%@$#*@&$#&#$&&*%X@>:==:;<<3:;:=;<<<<,<54<5<<5,>>>,",
">56568666,64<<0644<6<<4<62>&&@ .<66<<>44>22;4<,:--:-&$&$$&-$$&$@$%%%%$----$$&@-&-*-*&;%%;,-*;%XX241<4<2<4*:<56695<<<9664848245<=",
"6w090r9t60q9666eq6856409w52,*   >4ew55q69965446<1::13---$:-&-&&&&$-;&-1&&:-&-&--*,-13;*;;;1<=  X=4q946565,3368e8405685q890096868",
"dgaasgafddadafaaiyifiesyrt94X  X><6gwdi8teii0a09711q3:131:113:::317:7qq2,111115-3258q8333844    #;4ytqtqqrq8wiggdfawwtifddayyeaa",
"eawewyittw9qye0u0q8q9698455<    >,4aeyw5qrqq832:111&1:3:&:--::-&-1&1373-&-,:-&,;::12742:<,:,    =;255686487<49iqyyy989rpqyq0ee0y",
"eyeweeyaty090ytr0qy0rw90885:  ..,>6yew9q8t998343:-&1::133:-:-:111:32172;&-111--1:,347531,71,    =;;83<841824wqytye9989qqwqqwe0ay",
"ayay0ytyity9qwiywt9wwq9888q% . .<46ie60qqrq98<5,3:::31::1-:11:-1,2,328131:31112,131<5343311;    *&:9548856q9w0ityyrr9wrqwqte9yyy",
"iaaytrreyit0yyqtwwttqwqw8r32   .,44etwi08q31,131-:::--:--1::-3::1278133211,2::1111<1,28<14<,    *#;q98699wuuwwryyw0wq59wt0qyyeye",
"itt0teaytiwqttwtytwyttwwwwq3 ...<45awt9wrw123;;:11:1:-:::-:--:-11215177312:;1,11,2154723<<,:    ##=qq8wrqrt9yyitittr9wqrrryqyy0w",
"yyy9iyy0iiiwqtetiyi5ytwyyyw, X  >,5ywqqqrt81:<11::&--::-:::11::1231337711213--1112111,133421    @#=538qt9wry0iyiwt098w8q9w6rriee",
"w50ta0eat0yuyqyiitutirwtw0w: .XX,>6y8qqww8t:13:-1---&-:311:--:1:233122;1113111,11255321683<:    &$%228wwtytiitysyttr8wtqwrtr9089",
"9w8yywyaaw0t5rwqwyiw0tu0yeq6  . ><5iyyrtrqr121111:-::1-1-:-:-1-121,,3323121;:,31113283144<;;.   -,=67qr8qqrqw0iwyyyuy9q8849rw996",
"q0ti0qwiyy9u09qwtrit0wy9tw86X.  ><6artqtrur12;%2:-1::111::1-:1115,1-12712;5-;132,252514<53<*    :>;9950twq9qttyyt0ste09qwqrty8iq",
"isyttyiitsiy09tw8trqr0tyqye9 .  =<<a8tqr9q77112:-1:-&--:11-::1-:11,2112:::;11,7,;13,7855511;..  *<209q8wqq9yeqyiyiesttttq0wtrryt",
"itrt9ytiyqistwiutr0yrweqwew6    >>6dri98urr5:313111::-:11:::1:111:233:7:-<:1:5,:1147732352:1    ;;<eww68q98qywtsityyi9itttwtw0uy",
"yt0uttyiee0iyaitrtrtqyywyeq6 X  >>5ap9trqq853,22711-:::1:1-1:131,1;13752,,&213-:21754722,4::    *=4wqw8q5843teyiiwytttyiwyqr9qtt",
"ttqeiiyytittyiyyt9ywyrtt0wtqX   <><dewyw89312:11213-:-,::1::::111111:77:11::3-:::11558822:2:    >::r6653844qytiwitietyaew0yqtytr",
"wuttwyytiqrytyysyqyttwqytwy2oX  ><4aeeyer82353132:&-:&::11:3::--&&,,1&:33::::-1:;<559471323-  .X==3wq66wq6959eywyyaewaityww08wwt",
"qq9yaaitttwtyyiwyiyyyiww0wy6   X<><ewyit72232;21,;---::----:1&-::-$:&-:1-:-1:11:317528351,1-    ;<<r9w6859q9wyittiaayaawre0wqrww",
"wweytiqyy0wwyyqiwyyiutyiyq08    >>0yq98,1213:112:1&---&-:----:-@&-&----1:3:-:1333172155:3,,;    *::r9938r5wii2qww0yiyytyiqyq00qt",
"tri0iyywtwtwtrytrwwt0rt00wq6 X  <26yq53111:311---:::$-:---$$&,--::-$-:1311313:117352347541,: X  *=<q6r894qttiq8wqw90twyiu0trrrri",
"wyytittsyyywyrwqqwiywqquttt6  X ;<4t631,::227-1------&----$&-:&----&:-1331131-:3:1385333353=    *,4qwwq6q9ir9q86wwtttw6iiwy0yrit",
"yweiqiwtywwqqtrr885ywwyqwyy6X X ,<4wq<3<:115-1-$&&--&-&::1---&;::--&&1-73-1-11::;2758554211:X X ;>4w59r066r99w50qyut9wtstqsq8wti",
"tieteyyawiyq8qq85qqyuwwtit00 .  >,4s8451-1-11:,-&:--::&-:-1:&---::----1:-,:11171138774744<1<    *=2w8558q8w8q35qy0ttyiyww0yy9rtu",
"iw0y0tetyetqr88698wry0w00wwqo X ><6a95<:1,::1-:&:--11-:::11-,-:-1-,&---1--131&11123245413<4;    %&5868q9q0t9640wwweewtyyiye0yytt",
"yw9twywytywq8844q98w90wwttw6X XX>=404,,;:;-:1::&---:*;1*:2--,3;1111-&*:21:,&1,1,-;33234:*1:<    ==<wq509ywqwqw9qweywwyiyeyy0weyr",
"0w86ywye0yq99646,435680qe9q6XX  :=*43:<13;-31-;-&--:&:,:42,-:;,3,,-$-:-----:&1:-:<<<113<:2<*    &,>08624660809w60tyq60wywwwe0yw9",
"6666666865461<<,<<224<53656<X XX#$&;&=-:*;&&;%&*&:-&-$;-:;$%-%$--&&$%$$$&$-&&&$$&-;:,1::***&    &=>01<<3<<456445<466<5486966q6<6",
" X X X X  XX X       X.   X X  X#@@             .. .X                                           #*#o   X   X  X    X   XX X.  X ",
"  o   X    XX      .    XX.oXX  XXX             .  X    .                                       #+  X     X  X   oX.XooX   X X.X",
"X X X X XX    X    X      X.o X.o                                                       X.      O.   X    .X X X  Xo  XXXXXoXX  ",
"  .  X XX               X o.X. #%X                                                            X+=o     X      X X       . X  XX ",
"::;*==:&*;:-*-;;**;:=;=><<<<<;<>4<2<,<;;#*&*&==;;-;%=:1;$#$&*$@+34<&;2;>2*<>2<>4<=654>><<<><-;>*&;<=>>;<45<4<<>5<<5<4<<6,<<><>##",
":<:<,:,1><:,;:::;:,*--<364<4<5546<6665;,4<:;=#=;,;;<;$;;%;=&;$ O185=<<4<64<<4455<4<<68<4<4=>11,<=,344<64556666<269665>=6886<<=.o",
"*,445<27265<>:;-<<,:,<48095606598we56626<245,12,4<1-,1;&:1::%.  ;2565q9846008866<w9q49<6832<:53,:66549689eqq0060000809009806%   ",
"=*1irtrtt0q8wwrq69938qwtyyiaiaddddaay0iwt0iqtw89q8438148854-+   ;:<iuriiwyshiaadssiydadaiiy9qr9rt9qiadgdfygifaysgadgsggfgdea+ . ",
"#=<9579968887875443,558q49q0qtwyayywqyww98wq8528834312:535<:.   >=>y9q90qw0w8weyww9twqw880894537389w0wwtsywt0yqryyia0iaiawe9  X ",
"*;;975rr9q888845,21214890qqt0itqy00qqwwtiu95885885813515131<    &<5yqq809qqyywq00ww9ytqt8949888q689qqwyyiwy0w0tyyyaaaiyyyie5.ooX",
"%;4888r999q59451553434889quqq0wywq9wwqyrttyw49444553<322,41,    =>6eq09w6ewwtu0twiwttewqrw9w888r869wtqwww0iryyii00iifiaayyy6XX  ",
"=*2q3q8r9q868886681256890twr0qyqirw00tytiwq98q88712233,:1<;&    =<4q9q6teww6twwwiqtyyyutu69q888985839y00iiyyyww0yiyyedeiia06XX  ",
"-*<6619536q55378555348tt9w0tiuttytyw0rityt0q888487278321&,::  . ;>>i990qrtqqqwq0qweeiaytrqr848855qq35ity0yitttytitwraiitaiy9.   ",
"*:18880858866185783324q99q09qrwweqtytiiesru98q675485134:;,1-    >;56tq09900wyrqeiwiiwysi8q9w8485q<888qttwytayurit98ru88rwey6X   ",
"*==83r99563869453837199qqqwwt0wewtww9ywitu0t97567584523,3,,*    ;<2tw8qqwrrwt00wiwtqwiyww85q989888q9qtuiwyyiirwqt864383890q2    ",
"=<,85q886544264:421188w8rttiuqyw0yiiwiyyu0wq88383,,1,451431&    :>4t8qt9rrwwwq9ytyirtyy69rrq8989918rwytwwty0u98qq17,8434533,    ",
":<:898q868476323-,5558r7wrttiwy0yywyiyyywtrr858457<:2212<3-&    ;<<yq9098wquu0wywtiuytr9wrq8619899q8riruyittq684821184283,:%    ",
"*,2r5988389891,3<<11498q9wwistrswaiyasyywtr992885q51251;,;;-    ;<<tq6qwwwiytwwiy8itqw9qq98331<954q8qwrtayiyw52121175513361-    ",
";>5rq5155866831,13:5<9qqqw0tyyswydaaiyyypurr8859942882123::%   X;<<ywtwtwyyw9wtt8wyiqqqr98525355548r88rrwtiyq::<588373,3312&    ",
"=*1w838q3q99511,4:,46qu5wwtiyyi0yysifyyewpr887578337774432,;    *<4wq8qqyrir0rw0yyu0qqq8r3549881858998qr0yytr513344:34;4,<,;    ",
";*;w84858548,47,53156ty99itwtyiiqyiiieiyie6679865588827732:; .  ;=<t0qqidyysqqtyrywtqt89r1;3375858937888eaewr225537<<12532;-    ",
"**<6343555831118,3<8www9qqwtiyieryiiyysaiwy515888q8555753,,,  . <;<y9qwiittitrttwyywrtrq,<381,589984895qqasew3,,:348537221<;.   ",
"&&,62993q983<32:-1115999w8wwyy8tyyyaiti0iir4514845531345255, .XX=,60080iiyitrrwqwqyrw0w6;7241<368q89835qtiwi95583128833:322-   .",
"&=>688885558235:<2<884368t0qtwtiyiwisuury5643qq8w5631852254,. . =1<yiyitwiipyrqw6iyywyr58414583688r8r9q0qyiiqyq9813215721:1-    ",
"&;<658q93888543213237588rwwrwrit0yyywitw59q33q9885938583:521 .  ;,<suyw00tiuiiywq9qiwwqq5q33823858q99669qyais09r833557513:<*    ",
"#=&865485q8845<482<4:78rwr90qyqtruwtr9q584q6585888583513,85<    ;<<ytyyqyyitutirrtywquqr882:5859799q5q8660yyiiwwq925833,,21-    ",
"&**668q88q55548188455889rqrwq0t0itwqrr99qr5855<99qq2:<3278<< .  ;<>ttwt9wtiiiwr860t9rw888751:<348qr86969wyyyy0yeit862453,31-    ",
"##:<<5988q8538988883,:7835658wttw55rurtwq8983w88q963333421<1XX .;<5iy9uititrttqwqrtt8wt891:1:33588935590wyw6ewywiww838511:2;    ",
"#$=<485q986348q338587-,135,2899w068qrq8w985854857q134<3<1433o   <<<yweyiti0u00tww8tiw90q4-%*,,11153<425uyytiiyi6tt04,44<;:,&   .",
"@*<q5<6588253;<24321:;,:3::4441581559yw885889988488353343321.   <,5wqt0qqw0qy00w8wqw048q:1&:-13,11;1839qw0rtyyyttiiq495*,,<-    ",
"%==69,434533-:%&-=:;-:;-:;3151;4314699q6824425442222:33:<1::   .==<ew90908qww80q60w6q96<-&-;$<:;:-:354556qw668ey00ye55,:;:;*    ",
"&#:3;,3,,;--%--;&&%%$*-%=&%-;;;*=-&:54<1:3<:,<<1,,;,:-=&-,,-... *=>64>4,654695555864<44&&%-%$&;-&-%-:1,,;42382<1998611,&*-&%    ",
"#++oX X                                      . ..X X   X  X .. .=&*o  XX  X  X XoX XX                 .     X   X..             ",
"@+  .                         X   X      . .  X     .       X   #%. ..  . X   X    X .                     .  . .  .            ",
"X . X X .X .                           . .    .             .   #.oXXX  XX X  XXXX  .                      .. ..X... X          ",
"*X X    X.   XX  X X                   ..    .     .        . .$<O. ...  X X     X XX                      . .X  X             O",
"%$-+$%@++&-$%-%$$%$$%-&%%&%$@OOO06<<><<<<<<><1,4<<;&,===1;;;%$#+@$O&$@$$#&--=;--**&:<&=&$*=;**+#-;-::*==:>;2;><><<<43,*%$$@+&&$$",
"::&@@&&$&$-$-,:-&%1:--%&$*$+@@  <09<569<656<415644<<,=2>3:=%%&$@$$&%@%&*&;*,-<-:*,*,=;&%;,=2;# X%=<=;=,=,1<4<4425<4>3,&&%@$$$--$",
":,-$-$-$&&:,1,13<31<:;;&--&@@   >698990900908wq8408641<q82::---&&:--*&&%:-;,<<21>>:5,,13-<2>>.  %*5<,1445564<4265465r73&%$-%--,:",
"6811&5;&1778787r6574778833:,o   ><6adedaiaaafiaidday0rytr8772:11-7213521135qr9q88968qtw34965o   %-=899r8t0wrisf9tyydpr5:;:7,1158",
"331-&,----1333,:<:3331,;;-&$    <44yywawy0yqwrytqtqrq965711::$-&---;,1-:;<:355311346983,3,31 X  %*-5<2664889q8w24198q73:-&&3-&37",
"131:---:&,:-252:1421:2:1,:-@    ,<4a0yqey00yuwwqttrqwq932231-:2:1--;1511,4157854486q85,5<561    &;,81385,q4qt9735657821-::,-,,81",
"3331---:&-:----1:;---1:,1,:-    =55iyeyywyywww0wyqqurr81125113335211:3325448748wqwr988<<,553    $;1844,;-8rqw955<8421:--1,,--725",
",1111,&::,:;;1-%&&-:1;13:11$    <49ytyeyytwqtityirq96q98,2131113,211855,43358888iry8898<;264  X ==1882,,,28trq8915q711:1,-,11-15",
"173-11-&-&::11<;-;;&-:,1,21-    >>6aeeyeqttrrrtttr9r435531;,,13517222188,143349r90u95383<<42    :*=673141:wq893335111,&13,1:11,1",
"531,;:11&,13:81:--:;;1,:;:&*    ><6deeyeitt0t04wrq988441,2-,1113285773852148335wtqqq98932q5< .  %&=q231313:8q9111-:1-:2:1,1,1137",
"7771172:1:2,143;&382:::<;11;    >>6daeyywytqt9698389w6632;1--1:::1754371:48935qr858r6557<965 XX ;&388752,1:227313::,::1-1:,:::55",
"837-:1323:5:273:,,88891:11:*    <<9aeeey9iurrrq6883q638121-;-:--&::3542375146qttt8w853515665    %,:w989733<<;;1113&:-1:1:13::-37",
"513-1:1,33311,7:;189uq933,:=    <<0gwytuqtrrq0q65888358531;11,,:-:1232554<,138uuq0q995336685    #*-q995q44785821:1,--21-1211:,32",
"318,1;3853112211138959wtr9<;    <6<apiiiriyiirw628885475122:,:&:&-&:;343<54535rwq65669356669X   *=,95qq9q59111,;11:112,:1:111-32",
",:1;:1799q521-1,-29r49r08q9,    ><9iii0w0wyuuwr88998<158<352:--12:-:1722:1233<qrqq996826q9w6 X X*=2w68<81883511211-71111-;;1:-1-",
"::;712129q7:51::127r0q89tq93    =29stiyitwwtwprw8q848514723:1-3,,:--:::15314514wrqr89q69w686X.XX%>,w85,31188875,1,11211111118,1-",
";*1138489572<41;389q99wq4944 X  ><9deeaeeeyiyi6w89q68q853222112;:1,:;1-3823848r9qw9q919qqr41   X-,,93412112q315:1:13;11,-:1337::",
",:1531:755578339868q86q84894X   <<<saaeey0yatt0w8yiqt86711,:1:---,--,133-341398qqr9q01898q96X.X ;=:q31:-;238885,,1751;1311,:1,,-",
":,1131748w44:154w887t8qq5q82    ><6aeeadyw0aywqwqwywr9578211,2,;,,,35221138q86rrtw95885894q8 X. =:;9<1351734535q3877123:&&,11-1-",
":2853ytq8q83<88q884rwq888692   X><9deeeeyeyaiii98eqtq885532711,31,115482:15tq9rrwqrq88488wq8  XX*::5;31:21238888987752;;2,,33--,",
"-23279urqq845295wq8qtw89w6w5  X >>6awyy00iyiiityett0r9794848;3:6r7335863<389rw9q8qq9w5696995 . X=%>4:3313:1285qw894q53,;:113&:&1",
";;,-17159q988q9ww889qqw5669<XoX ,<8awwayirwyiit0r6wyt9887384<23qrq1351128wqwtt9wtw89q0090wr6.  X=%,<2532-115868868565211:-:1:,&-",
";-;-2:251rw9qq08qqrq58q88q65X.X >,6fy0iywyywstw6ywqw9rr8958510q8rq818,78890wrrtrr9qw9wqy0rw4 X  #*:1222331:21896q8531112-1::,-,,",
";---2-2:38q899ww5w4q988rq465X   ,25ayeeeyiwtyty9ytet85t995585q0q8r7rr75598qwqwyqr0qq9qyeiqt8. ..#;;5551122::37808883655::1::1-:&",
"-;-,-;-1;486<wq9wq598899q964X  X>,6yeea0it0wwr0tttiq9q566>68t0qt69w2665538qwqrw5rqqq9qy5986<  XX%*,<522<3<1146qq9555822,,-1:1--:",
":-:,&:--,<898q89069q96485<w>.  X><4dee0ytwqqwqtwyi0w668462568094wq5366565q80w956r0rq64656908   X&*=6,<<<,:31888q94595:12&-,--:&:",
";:-,-:-:-143169966159q66662<    ;<6a00e0069<w500ytw6485525q55451516<4441632<5556699385559994 XX =#*81<1<;<;;164638441:;&,-,:,,,:",
",&-&&%&-%-;&::,<4<<<5:<,<<;& X  =,>w88<865685<45646<<,3<3441,2<<,4>;*,:;,<:,>*,<34>3:55<42<>X Xo*&><<::*&;:;114;<3<1--*%$&&-$$$&",
"                X  .         X  ,==XX.X.  .X   X   .    . O X.   X                X  . .X      o*#$X .  .  XX .  XX .          .",
"                  ..XX          *#     X X .X      X     X. X.    X         .X  .  . X   .   X  &@X       .    X                ",
"                        .X       X XX.     .  X XXX      .. .  .        .        XX   . X.X..   +     X  .                      ",
"                   .  X  X   X @<+X X      X    X X.  X                .      X     . X     X  +%X X  .                         "
};
