/* XPM */
static char *_10d5c7cf7b24f4dc11b0706836b540eFxKf7tao7NB0dZyR[] = {
/* columns rows colors chars-per-pixel */
"64 64 8 1 ",
"  c #351907",
". c #4D250B",
"X c #452C18",
"o c #6F3611",
"O c #643F23",
"+ c #A04E19",
"@ c #905B33",
"# c #CF8349",
/* pixels */
"##############+++o@#############ooo+###############@@++++#######",
"##############+++o@#############.oo+###############@@++++#######",
"#############++++o@#############.o++###############@@+++++######",
"#############++++o@#############.o++###############@@o++++######",
"#############++++o@#############.o+++##############@@o+++++#####",
"#############++++@@############O.o+++###############@@o++++#####",
"#############++++@@############O.++++###############@@o+++++####",
"############+++++@@############OO++++################@@+++++####",
"############++++o@@###########@O@++++################@@++++++###",
"############++++oO@###########@OO++++#################@o+++++###",
"############+++oOO############OO@++++##################@++++++##",
"############++ooO@############OOo++++###################o++++++#",
"###########+++oo@@############OO+++++###################@o++++++",
"##########++++o+@@############@O+++++####################o++++++",
"+++++++++++++ooo#@###########@@.++++#####################@o+++++",
"+++++++++++++oo@#@###########@.oo+++######################@o++++",
"+++++++++++ooo@##############@ooo+++#######################@++++",
"++++++oooooooo###############@ooo++########################o++++",
"++o@@@@@@@@##################O+oo++#######################@o++++",
"@@@@@@@#####################Oo+oo+########################Oo++++",
"oooo@######@@@@@@###########Oo+ooo######################## o+++@",
"+ooo####@@@@@@@@@@@########@.++..o#######################X +++o@",
"+oooo@@@@@@O@@@@@@o...o@@@@O.oo.o#####################@@O +++oo#",
"++++++++++ooOOOoooooooo@@@@O o+oo#####################@OXo++oo##",
"++++++++++++++++++++++oo+@OO.+o+######################.o.+++oo##",
"+++++++++++++++++++++++++o@X o++#####################O..++++o###",
"##++++++++++++++++++++++++@ ++++###################@O.oo++++o###",
"#########+++++++++##++++++.o++++#################@@@Ooo+++++@###",
"######################+o+ooo++++################OO. o+++++++@###",
"######################+ooooo+++################..o.o++++++++@###",
"######################@.oooo+++############@OO  .oo+++++++++@###",
"######################@ oooo+++#########@@O.oo++++++++++++++@###",
"######################O.+ooo+++#######@@.oo+++++++++++#@++++@###",
"######################OO+o+++++######@@oo+++++++++#####@o+++@###",
"######################OOXo++++#######@oo+++++++++######@o+++@###",
"######################@O +++++#####@@oo+++++++#########@o+++@###",
"######################@@ o+++#####@@oo++++++###########@o+++@###",
"#####################@@X ++++####@@oo++++++############@o++o@###",
"######################@.o+++###@@@oo++++++#############oo++.@###",
"######################ooo+++@O@@Ooo++++++##############oo++.@###",
"###################@@oo+++++Ooooo+++++++###############oo+oo@###",
"###################@@oo++++++++++++++++################oo+o@O###",
"###################@@o+++++++++++++++@#################oo+o@O###",
"################@@@@@++++++++++++++o@##################oo+o@@###",
"#@#########@@@@@@@@oo++++oo+++oo@O@####################oo+o@@###",
"#@###@@@@@@@@@@oooooo++.o+ooo@@O@######################oo+o@@###",
"#@@@@@oooooo++++++++o..+oo@@@OO########################oo+.@@###",
"OO@@ooo.ooo++++++++o oooo@@O@##########################oo+.@@###",
"oo++++ooo+ooo+oooo.o.o++o@@############################oo+.@@###",
"oo++oooo+o+oo.o..o@@O++++@#############################oo+.@@###",
"+ooooooo.OOOO@OO@@@@O++++##############################oo+.@@###",
"oooooooOO@@@OO@@@@@@@++++##############################ooo.@O###",
"oooo@@@@@OOO@@@#####@o++++#############################ooooO@###",
"+@@@@@@@@@O@@#######@o++++#############################oooo@####",
"+@@###@@@@##########@o++++############################@ooooo####",
"+@@##################@++++############################@oooo+####",
"#@###################@o+++############################@ooooo####",
"#@###################@o+++############################@ooooo####",
"#####################@o+++############################@ooo.o####",
"#####################@o+++#############################ooo.o####",
"#####################@o+++############################@oooo@####",
"#####################@o+++############################o.+o.@####",
"#####################@o+++############################.o+oo@####",
"#####################@################################oo+o.@####"
};
