/* XPM */
static char *_7c1174e88c644d0eaaadb9ac2ab8c863hcydHkrjqB2erip[] = {
/* columns rows colors chars-per-pixel */
"64 64 31 1 ",
"  c None",
". c #020409",
"X c #02060C",
"o c #03060D",
"O c #060110",
"+ c #000510",
"@ c #090217",
"# c #040A12",
"$ c #050914",
"% c #000818",
"& c #0E0421",
"* c #000C23",
"= c #0E0F2C",
"- c #011233",
"; c #6D2412",
": c #691B22",
"> c #6D2231",
", c #021B49",
"< c #132243",
"1 c #032769",
"2 c #5B537D",
"3 c #61676D",
"4 c #9C341A",
"5 c #8F5765",
"6 c #A78769",
"7 c #78D7FF",
"8 c #8B949D",
"9 c #928FB8",
"0 c #F0C297",
"q c #F8FFB8",
"w c #C7D4E1",
/* pixels */
"                                                                ",
"                                                                ",
"                                                                ",
"                                                                ",
"                                                                ",
"                                                                ",
"                                                                ",
"                                                                ",
"                                                                ",
"                                                                ",
"                                                                ",
"                             ==                                 ",
"                             =2=                                ",
"                             =22=  ===                          ",
"                             =222=====                          ",
"                         =   =2222222===                        ",
"                         =====222222222=                        ",
"                         =2222222222222=                        ",
"                        ==2222222222222==                       ",
"                      ====22222222222222=                       ",
"                     ==2=2222222222222222=                      ",
"                      =2:::22244442242=22=                      ",
"                       =::::4444444444==2=                      ",
"                       =::::44444444444#==                      ",
"                       =::===4444===444#                        ",
"                        =#99=4444=q9444#                        ",
"                         #::44444444444#                        ",
"                         #::444444444##                         ",
"                      ####::4444444##                           ",
"                     #1111>>>;;;;;;X#########=                  ",
"                    #11111###########<<11111<<#                 ",
"                   X111,,,-,,11111111111111<<<#                 ",
"                 &&4;,,,11,,,,111111111111<<<<<                 ",
"                #444444,-,-,1,,-,111111#<<<<<44#                ",
"               #4444444,,**-,1,11111111####<4444#               ",
"               #4444$$$$$1%-*-,,11111111# #444444#              ",
"             ##4444$     &1--111111111,-#  #44444#              ",
"           ##44444$      .-+,,,1111111*,&   #44444#             ",
"          #444444$       $-%111111111,*,&   #44444#             ",
"          #44444&$       $-,,11111111-,%&    #4444##            ",
"          ###44&         $,*-11111111,+,&     #4444##           ",
"           #44$$         X-,,11111111-+-@     #44444#           ",
"            ##           X11,11111111%,1@      #444#4#          ",
"                         $1111111111,,,,&      #44##4#          ",
"                         $55500055555555&      #######          ",
"                         $55560055555555&                       ",
"                         $77777777777775&                       ",
"                        $777777777777777&                       ",
"                        $777777777777777&                       ",
"                        $7777777777777777&                      ",
"                       $7777777&&&&777777&                      ",
"                      $7777777&   &7777777&                     ",
"                      $777777&     &7777777&                    ",
"                     $7777777&      &777777@                    ",
"                     &7777777&       &777777O                   ",
"                     &777777&         &77777&                   ",
"                     $77777&          &777777&                  ",
"                     $77777&           &77777&                  ",
"                     X77777&            &7777&                  ",
"                    $X88wwww&          &wwwwww&                 ",
"                   .383wwwww&          &wwwwww&                 ",
"                   X3wwwwwww&          &wwwwww&                 ",
"                    &&&&&&&&            &&&&&&                  ",
"                                                                "
};
